<?xml version="1.0" encoding="UTF-8" standalone="no"?>
<!-- Created with Inkscape (http://www.inkscape.org/) -->

<svg
   xmlns:dc="http://purl.org/dc/elements/1.1/"
   xmlns:cc="http://creativecommons.org/ns#"
   xmlns:rdf="http://www.w3.org/1999/02/22-rdf-syntax-ns#"
   xmlns:svg="http://www.w3.org/2000/svg"
   xmlns="http://www.w3.org/2000/svg"
   xmlns:sodipodi="http://sodipodi.sourceforge.net/DTD/sodipodi-0.dtd"
   xmlns:inkscape="http://www.inkscape.org/namespaces/inkscape"
   version="1.1"
   id="svg2"
   width="4145.3398"
   height="3603.1064"
   viewBox="0 0 4145.3399 3603.1065"
   sodipodi:docname="Gendarmerie nationale logo.svg"
   inkscape:version="0.92.4 (5da689c313, 2019-01-14)">
  <metadata
     id="metadata8">
    <rdf:RDF>
      <cc:Work
         rdf:about="">
        <dc:format>image/svg+xml</dc:format>
        <dc:type
           rdf:resource="http://purl.org/dc/dcmitype/StillImage" />
        <dc:title></dc:title>
      </cc:Work>
    </rdf:RDF>
  </metadata>
  <defs
     id="defs6" />
  <sodipodi:namedview
     pagecolor="#ffffff"
     bordercolor="#666666"
     borderopacity="1"
     objecttolerance="10"
     gridtolerance="10"
     guidetolerance="10"
     inkscape:pageopacity="0"
     inkscape:pageshadow="2"
     inkscape:window-width="1920"
     inkscape:window-height="1001"
     id="namedview4"
     showgrid="false"
     fit-margin-top="0"
     fit-margin-left="0"
     fit-margin-right="0"
     fit-margin-bottom="0"
     inkscape:zoom="0.24583333"
     inkscape:cx="1102.2743"
     inkscape:cy="1845.2858"
     inkscape:window-x="-9"
     inkscape:window-y="-9"
     inkscape:window-maximized="1"
     inkscape:current-layer="svg2" />
  <path
     style="fill:#014f92;fill-opacity:1;stroke:#014f92;stroke-width:3.23077512;stroke-opacity:1"
     d="m 1074.468,3225.2321 c -13.4319,-9.9096 -161.7515,-147.6337 -161.701,-150.1495 0,-1.0139 4.23396,-15.7624 9.36352,-32.7743 20.10198,-66.6662 21.30686,-76.9717 21.12454,-180.6851 -0.16231,-90.6776 -0.58811,-97.2869 -8.81094,-136.0438 -4.7539,-22.405 -9.51411,-43.4857 -10.5785,-46.8463 -3.43305,-10.8403 30.37804,28.467 53.10368,61.7361 38.556,56.4426 67.4804,115.7248 89.1118,182.6367 23.5377,72.8095 24.9314,82.5727 26.6562,186.7499 1.4996,90.592 0.1443,123.3066 -5.1157,123.3066 -1.3226,0 -7.2419,-3.5687 -13.1536,-7.9303 z"
     id="path28"
     inkscape:connector-curvature="0" />
  <path
     style="fill:#014f92;fill-opacity:1;stroke:#014f92;stroke-width:4.56900597;stroke-opacity:1"
     d="M 950.42431,3382.7549 C 783.56761,3214.4949 659.26116,3067.8769 530.69442,2887.6869 326.51802,2601.5283 162.96596,2280.9745 81.018968,2006.3454 -19.848391,1668.309 -23.89822,1308.6688 69.44893,978.96638 164.43596,643.47306 350.0076,318.57839 600.35938,49.460886 625.59615,22.332486 647.23233,1.1244861 648.43956,2.3320861 649.64733,3.5394861 634.37877,24.707486 614.51052,49.371786 485.45144,209.58279 383.51968,368.44919 295.51237,546.54799 178.88593,782.56275 114.72474,991.42362 80.062779,1247.8904 c -11.938303,88.3308 -11.871034,375.6117 0.108207,466.0386 11.528198,87.0192 36.069194,206.1534 57.694194,280.0766 62.70272,214.3461 191.33763,456.8522 366.44801,690.8371 159.13342,212.6362 360.49951,422.3287 546.14981,568.7326 29.2543,23.0701 37.0625,31.6273 35.4378,38.8366 -27.5111,122.0649 -40.1378,174.3753 -42.7622,177.154 -1.7782,1.8827 -43.5001,-37.1822 -92.71483,-86.811 z"
     id="path32"
     inkscape:connector-curvature="0" />
  <path
     style="fill:#014f92;fill-opacity:1;stroke:#014f92;stroke-width:4.56900597;stroke-opacity:1"
     d="m 356.20011,2155.0843 c -25.29448,-30.498 -51.96084,-95.3153 -65.46905,-159.132 -8.32888,-39.3486 -20.9974,-132.0245 -18.40241,-134.6197 4.09257,-4.0924 243.60092,-6.8177 319.15866,-3.6316 77.98463,3.2886 81.2101,3.8017 83.03069,13.209 1.04221,5.3833 6.33353,39.4803 11.75867,75.7711 10.81476,72.3431 30.91404,140.1802 56.71294,191.41 l 16.48697,32.7385 -195.38225,-0.3298 -195.3826,-0.3297 z"
     id="path34"
     inkscape:connector-curvature="0" />
  <path
     style="fill:#014f92;fill-opacity:1;stroke:#014f92;stroke-width:1.61538756;stroke-opacity:1"
     d="m 966.22741,2171.1889 c -16.20887,-2.6484 -32.96546,-8.0551 -43.75009,-14.1167 -9.66361,-5.4314 -20.85637,-16.9939 -24.20249,-25.0021 -5.03974,-12.0619 -5.84751,-46.6959 -4.74325,-203.3773 l 1.08189,-153.4618 11.50222,-11.6449 c 12.65373,-12.8109 23.99762,-19.6601 39.98467,-24.1423 15.38884,-4.3145 76.73844,-4.3063 92.07694,0.013 23.1077,6.5059 37.9086,17.3974 45.9341,33.8014 3.7561,7.6767 6.7105,19.8316 9.6651,39.7623 l 1.0517,7.0966 -21.4601,-0.8727 c -11.8027,-0.4801 -22.6993,-1.3764 -24.2142,-1.9917 -1.5851,-0.6437 -3.8733,-5.0013 -5.3893,-10.2622 -3.9061,-13.5559 -15.8247,-24.7056 -31.4985,-29.4664 -21.64918,-6.5758 -51.37492,-1.6294 -63.58518,10.5807 -5.06734,5.0677 -5.34327,5.9894 -6.35374,21.2506 -0.58089,8.7743 -1.05989,80.4442 -1.06476,159.2665 v 143.3134 l 8.80499,6.648 c 12.02343,9.0775 20.25564,11.233 42.74016,11.1905 22.42163,-0.04 26.89973,-1.6841 41.85263,-15.3425 l 10.2056,-9.3219 -0.5885,-56.7079 c -0.6299,-60.6765 -1.2014,-65.1973 -8.6711,-68.6007 -5.7222,-2.6073 -19.5895,-2.2763 -29.636,0.7073 -6.22241,1.8478 -9.05708,2.0593 -10.3442,0.772 -1.03879,-1.0386 -2.03213,-10.6446 -2.39877,-23.1931 l -0.62634,-21.4199 15.92721,-4.7698 c 21.8744,-6.551 40.7767,-6.7081 54.244,-0.4506 11.1244,5.1685 23.1316,17.0332 25.5132,25.21 2.6377,9.0559 5.2818,82.7997 4.2098,117.4216 -1.0051,32.4695 -3.3706,47.7727 -9.13,59.0625 -8.3337,16.3351 -29.873,30.5723 -54.8716,36.2696 -15.8671,3.6161 -45.78363,4.4709 -62.25797,1.7791 z"
     id="path36"
     inkscape:connector-curvature="0" />
  <path
     style="fill:#014f92;fill-opacity:1;stroke:#014f92;stroke-width:1.61538756;stroke-opacity:1"
     d="m 1216.0405,2169.5207 c -20.3045,-5.1279 -46.2266,-22.4205 -52.881,-35.2769 -4.4051,-8.5109 -5.3438,-28.3625 -5.3652,-113.4739 -0.045,-107.3367 1.6974,-125.9802 12.8312,-138.6606 5.492,-6.2555 18.3016,-13.3652 35.5523,-19.7337 11.1076,-4.1005 14.4669,-4.5318 40.3845,-5.1839 50.0881,-1.2602 69.9057,4.8481 92.5183,28.516 14.767,15.4568 14.6326,14.8961 13.8478,57.7342 -0.5427,29.6563 -0.6819,30.7341 -5.133,39.7989 -2.5166,5.1245 -8.0279,12.8619 -12.2476,17.194 -14.6772,15.0685 -28.5421,19.204 -68.7928,20.5187 -15.4487,0.5046 -30.9948,1.8731 -35.5385,3.1281 -9.7602,2.6962 -19.1598,10.1386 -23.4666,18.5811 -6.2357,12.2231 -8.1994,40.8588 -3.9269,57.2627 5.3835,20.6695 17.7276,28.4523 46.9123,29.5784 20.0381,0.7731 31.9541,-1.678 42.686,-8.7801 5.5601,-3.6794 7.824,-7.1323 15.1496,-23.1078 2.2487,-4.9033 5.6031,-5.7954 27.2429,-7.2449 l 17.3643,-1.1632 v 14.586 c 0,19.8538 -3.9127,30.1859 -16.0128,42.2857 -9.9006,9.9002 -23.4555,17.1547 -40.5257,21.6897 -14.2536,3.7863 -67.9234,4.9528 -80.5991,1.7515 z m 0.6372,-182.601 c 6.2193,-1.2913 19.6673,-3.1463 29.8846,-4.1223 30.8029,-2.9429 48.388,-8.7884 55.8296,-18.5584 11.0093,-14.4542 7.3593,-40.8863 -7.6302,-55.252 -16.4861,-15.8004 -49.5967,-17.6067 -74.568,-4.0682 -9.603,5.2065 -13.2449,10.1557 -16.4078,22.3 -4.01,15.3953 -3.0794,62.0663 1.2373,62.0497 0.1887,-7e-4 5.4354,-1.0577 11.6545,-2.3488 z"
     id="path38"
     inkscape:connector-curvature="0" />
  <path
     style="fill:#014f92;fill-opacity:1;stroke:#014f92;stroke-width:1.61538756;stroke-opacity:1"
     d="m 1407.1347,2135.0586 c 0.5199,-19.324 1.3421,-59.8501 1.8278,-90.0579 0.9744,-60.626 3.4343,-132.4059 5.0094,-146.1926 0.8662,-7.582 1.9414,-9.7729 7.3338,-14.9432 3.4747,-3.3322 11.871,-9.309 18.6579,-13.282 18.5092,-10.8348 29.4637,-12.8099 71.5227,-12.8961 l 34.7307,-0.07 13.4377,5.9276 c 35.3435,15.5908 40.6032,22.804 43.9162,60.2284 0.8689,9.8143 1.5859,69.2739 1.5937,132.1327 v 114.2888 h -21.8079 -21.8075 l -0.045,-99.7503 c -0.049,-131.7399 -1.5627,-150.1844 -13.2611,-161.5227 -10.1035,-9.7931 -35.1076,-15.328 -53.7409,-11.8964 -14.1062,2.5978 -29.1663,10.4605 -33.9856,17.7432 -3.4987,5.2868 -4.1604,8.7758 -5.5649,29.3476 -0.8765,12.8411 -1.6044,68.9619 -1.6179,124.7129 l -0.045,101.3657 h -23.5709 -23.5704 z"
     id="path40"
     inkscape:connector-curvature="0" />
  <path
     style="fill:#014f92;fill-opacity:1;stroke:#014f92;stroke-width:1.61538756;stroke-opacity:1"
     d="m 1739.2436,2171.8513 c -26.4262,-3.4128 -55.0358,-21.2661 -63.026,-39.3291 -5.668,-12.8137 -6.808,-34.5493 -5.9463,-113.3676 0.8447,-77.2366 1.7275,-87.0948 9.2279,-103.0515 4.6195,-9.8281 15.6401,-19.7689 28.2592,-25.4906 5.617,-2.5468 22.8161,-8.9597 38.2203,-14.2506 52.314,-17.9691 68.8365,-26.7299 72.5826,-38.4853 1.2494,-3.9214 2.2015,-22.7282 2.6597,-52.5494 l 0.714,-46.4424 h 24.2043 24.2043 l -0.7569,182.9426 c -0.5136,124.1459 -1.3367,186.2813 -2.5615,193.3304 -3.4415,19.8153 -18.3723,37.4285 -41.2223,48.6281 -10.45,5.122 -15.9411,6.7152 -27.5858,8.0034 -16.1872,1.7906 -45.3514,1.8215 -58.9735,0.061 z m 38.5934,-38.7763 c 15.1279,-2.869 26.0038,-6.6804 30.9581,-10.8491 12.0831,-10.1671 13.2876,-23.0097 12.5931,-134.2571 -0.4,-64.2797 -1.0716,-89.5167 -2.4141,-90.8582 -1.4004,-1.4002 -3.5889,-0.8563 -8.8845,2.2076 -3.8645,2.2359 -16.8397,7.4673 -28.8339,11.6252 -26.5371,9.1996 -44.2951,18.193 -55.0949,27.9032 l -8.1276,7.3074 0.6195,76.0773 c 0.6694,82.1608 1.2813,88.4464 9.4794,97.3629 4.8358,5.2592 14.8854,9.8275 27.7898,12.6326 12.6351,2.7466 12.0286,2.7232 21.9151,0.8482 z"
     id="path42"
     inkscape:connector-curvature="0" />
  <path
     style="fill:#014f92;fill-opacity:1;stroke:#014f92;stroke-width:1.61538756;stroke-opacity:1"
     d="m 2008.0484,2171.7366 c -23.7924,-2.3486 -40.2521,-9.0827 -54.2864,-22.2104 -14.2207,-13.3015 -21.2282,-29.6123 -23.1458,-53.873 -2.0542,-25.9876 3.841,-50.1535 15.4635,-63.3906 11.921,-13.5775 29.4287,-22.8593 72.6377,-38.5094 53.4341,-19.3536 63.29,-26.7535 65.6236,-49.2698 1.3353,-12.8849 -1.4597,-21.8695 -9.5252,-30.62 -11.8756,-12.8834 -30.2167,-19.4346 -49.8115,-17.792 -21.3009,1.786 -33.9164,10.5513 -42.7611,29.711 -5.0464,10.9314 -5.7842,11.7404 -12.3123,13.5017 -9.0988,2.455 -34.0101,1.303 -37.6797,-1.7425 -2.2946,-1.9043 -2.5781,-4.0006 -1.6998,-12.5708 2.9883,-29.1695 22.5632,-53.4903 49.9956,-62.1177 10.5695,-3.3239 14.6392,-3.6213 49.4786,-3.6143 39.9465,0.018 50.5883,1.288 64.6153,7.7725 9.7635,4.5135 24.4227,19.6807 29.9597,30.9981 l 4.5082,9.2145 1.4026,54.3499 c 1.6178,62.7107 -0.5126,149.2911 -4.021,163.3887 -4.3077,17.3104 -11.5089,25.5753 -30.5313,35.0423 -18.7927,9.3531 -58.4268,14.6422 -87.9107,11.7318 z m 41.8274,-42.7834 c 28.2022,-3.5604 36.8317,-22.811 36.8195,-82.1396 0,-15.8838 -0.3818,-29.254 -0.8379,-29.7117 -3.3148,-3.3149 -84.547,31.6289 -94.3544,40.5888 -13.7838,12.5917 -16.1043,38.8043 -4.9714,56.1533 6.153,9.589 14.5178,13.8893 30.7137,15.7896 11.7623,1.38 17.2089,1.2666 32.6305,-0.6804 z"
     id="path44"
     inkscape:connector-curvature="0" />
  <path
     style="fill:#014f92;fill-opacity:1;stroke:#014f92;stroke-width:1.61538756;stroke-opacity:1"
     d="m 2194.7948,2034.6686 v -135.5248 l 12.9506,-12.1829 c 15.4168,-14.5032 28.2619,-22.6483 41.2911,-26.1827 10.3606,-2.8108 63.1018,-5.2767 70.9149,-3.3158 4.0544,1.0177 4.3207,1.5661 3.3277,6.8576 -2.4736,13.188 -7.5326,26.406 -10.7684,28.1378 -1.829,0.9788 -10.6382,2.8057 -19.5762,4.06 -26.2343,3.6815 -40.9681,12.3911 -48.2624,28.5288 l -3.8386,8.4924 v 118.3273 118.3275 l -23.0191,-2e-4 -23.0196,-4e-4 z"
     id="path46"
     inkscape:connector-curvature="0" />
  <path
     style="fill:#014f92;fill-opacity:1;stroke:#014f92;stroke-width:1.61538756;stroke-opacity:1"
     d="m 2366.7602,2033.2891 1.0734,-136.9041 10.8079,-10.1754 c 12.9035,-12.1486 28.2353,-21.6255 41.5001,-25.6517 7.9371,-2.4093 15.2505,-2.9359 40.3845,-2.9077 34.6601,0.04 49.4201,2.0489 66.2005,9.0149 13.4911,5.6008 16.6473,5.7495 25.5372,1.2043 13.0307,-6.6623 21.8741,-8.135 54.0173,-8.9956 31.5074,-0.8438 49.6236,0.613 65.655,5.2791 9.6344,2.8041 26.404,12.0259 31.223,17.1695 5.5294,5.902 9.7541,17.091 11.7857,31.2165 1.9189,13.3425 4.6201,133.9251 4.7674,212.8274 l 0.085,44.8269 h -24.2308 -24.2304 l -0.045,-95.7116 c -0.045,-105.6 -1.6125,-150.1635 -5.5592,-157.7949 -6.1784,-11.9479 -23.9081,-19.4939 -45.8015,-19.4939 -17.4215,0 -29.4761,3.7138 -41.4857,12.7811 l -8.3629,6.3144 -1.0689,31.9045 c -0.5876,17.5474 -1.0702,61.046 -1.0729,96.6638 0,35.6178 -0.4806,78.3895 -1.063,95.0482 l -1.0584,30.2884 h -23.1679 -23.168 l -0.09,-76.3271 c -0.1027,-86.5881 -2.1259,-158.4746 -4.7593,-169.2118 -2.7365,-11.1587 -7.7131,-17.1633 -18.0828,-21.8189 -16.8046,-7.5445 -42.8375,-7.9544 -58.7297,-0.9246 -4.0008,1.7699 -11.6153,7.3584 -16.9209,12.4189 l -9.6461,9.201 v 123.3314 123.3311 h -22.7852 -22.785 z"
     id="path48"
     inkscape:connector-curvature="0" />
  <path
     style="fill:#014f92;fill-opacity:1;stroke:#014f92;stroke-width:1.61538756;stroke-opacity:1"
     d="m 2844.181,2170.1465 c -20.7067,-4.2554 -51.4218,-26.0885 -57.3634,-40.7755 -1.7734,-4.3831 -3.2502,-14.648 -4.1215,-28.6393 -1.8406,-29.5795 -1.7894,-129.979 0.085,-164.7696 2.457,-45.6293 6.2244,-53.2391 32.7757,-66.2077 21.807,-10.6512 33.0113,-12.897 64.1634,-12.8619 41.2274,0.047 59.8803,5.2381 80.2716,22.3414 14.176,11.8901 16.4061,16.1852 18.2505,35.1519 2.2769,23.4139 2.0069,52.1237 -0.5706,60.6887 -4.345,14.4368 -18.7128,31.0043 -32.5283,37.5081 -12.1258,5.7083 -23.5691,7.4793 -56.9241,8.8099 -34.1592,1.3627 -36.4405,2.0298 -48.1516,14.0797 -10.7789,11.0909 -12.5437,17.5496 -11.7385,42.9692 0.5409,17.0864 1.351,22.9702 3.9582,28.7517 3.9438,8.7449 12.8105,16.9099 21.1385,19.4657 9.1222,2.7997 43.5235,3.8666 51.8829,1.6092 12.4232,-3.3549 22.042,-14.5268 27.1257,-31.5053 1.8523,-6.1875 5.0118,-6.9792 28.6419,-7.1778 l 19.1643,-0.1605 -0.6941,16.5579 c -0.8379,19.9957 -4.3613,28.6687 -16.5716,40.7942 -9.1532,9.0896 -20.5458,15.1488 -38.1671,20.2994 -10.0039,2.924 -17.019,3.5871 -42.6646,4.0322 -16.881,0.2931 -33.9639,-0.1407 -37.9616,-0.9611 z m 2.4229,-184.0411 c 4.4421,-0.8611 19.0816,-2.686 32.5314,-4.055 44.6289,-4.5427 52.2865,-10.5307 52.2672,-40.8709 0,-19.118 -1.8303,-24.7183 -10.5043,-32.3532 -21.5612,-18.979 -65.6276,-16.2552 -84.4845,5.2221 -2.7389,3.1194 -5.7424,8.4174 -6.6742,11.7735 -1.8285,6.5835 -2.3825,56.5915 -0.6767,61.0374 0.7487,1.9511 2.2048,2.4381 5.2501,1.756 2.3178,-0.519 7.8484,-1.6485 12.291,-2.5099 z"
     id="path50"
     inkscape:connector-curvature="0" />
  <path
     style="fill:#014f92;fill-opacity:1;stroke:#014f92;stroke-width:1.61538756;stroke-opacity:1"
     d="m 3030.7454,2125.3663 c 0.4403,-24.6548 1.173,-75.3873 1.6273,-112.739 1.2166,-100.0251 3.3665,-116.5746 16.8841,-129.9968 9.254,-9.1881 27.4821,-18.7961 41.6628,-21.9603 13.2144,-2.9486 70.541,-5.0935 72.0231,-2.6947 1.5501,2.5075 -6.4989,29.751 -9.7446,32.9838 -1.9791,1.9714 -8.2928,3.6849 -19.8628,5.3904 -28.9681,4.2706 -41.5755,10.0885 -47.7547,22.0376 -4.2137,8.1485 -5.474,35.9307 -6.6035,145.5942 l -1.094,106.2117 h -23.9694 -23.9693 z"
     id="path52"
     inkscape:connector-curvature="0" />
  <path
     style="fill:#014f92;fill-opacity:1;stroke:#014f92;stroke-width:1.61538756;stroke-opacity:1"
     d="m 3210.8739,2015.1161 v -155.0773 h 24.2305 24.2308 v 155.0773 155.0771 h -24.2308 -24.2305 z"
     id="path54"
     inkscape:connector-curvature="0" />
  <path
     style="fill:#014f92;fill-opacity:1;stroke:#014f92;stroke-width:1.61538756;stroke-opacity:1"
     d="m 3210.8739,1767.9618 v -29.077 h 24.2305 24.2308 v 29.077 29.077 h -24.2308 -24.2305 z"
     id="path56"
     inkscape:connector-curvature="0" />
  <path
     style="fill:#014f92;fill-opacity:1;stroke:#014f92;stroke-width:1.61538756;stroke-opacity:1"
     d="m 3380.9644,2169.4251 c -19.3085,-5.4184 -41.0534,-18.9891 -49.2759,-30.7526 -7.8134,-11.1792 -8.3041,-18.1813 -8.313,-118.7103 0,-132.4256 0.5616,-135.023 33.3981,-151.1433 21.8366,-10.7204 32.7348,-12.5545 68.6751,-11.5567 43.4148,1.2055 56.5996,5.7565 77.9029,26.8898 15.1171,14.997 16.061,18.0187 16.061,51.4209 0,37.4819 -2.7438,47.4494 -17.5099,63.6058 -14.7708,16.1616 -28.3818,20.29 -73.1378,22.1837 -34.6449,1.4656 -39.1315,2.6826 -49.4054,13.4007 -8.331,8.6914 -10.546,16.0381 -11.4258,37.8984 -0.9955,24.7437 0.9279,33.4932 9.5039,43.2363 9.3005,10.5661 17.9048,13.1095 44.2442,13.0783 18.6013,-0.023 21.9769,-0.4633 29.5508,-3.8637 10.3812,-4.6605 18.2964,-13.4917 20.935,-23.3578 1.7598,-6.5797 2.6,-7.5074 8.0472,-8.8863 3.3454,-0.8467 13.6339,-2.0336 22.8632,-2.6374 l 16.7808,-1.0976 -0.7701,15.9883 c -0.6092,12.6491 -1.6408,17.8906 -4.9404,25.0972 -8.0479,17.5801 -25.3477,30.1397 -51.0423,37.0573 -16.4816,4.4372 -69.0832,5.8135 -82.1416,2.149 z m 4.3712,-183.239 c 3.9981,-0.8231 15.9923,-2.3306 26.6537,-3.3498 46.0266,-4.4 62.1924,-14.58 62.1924,-39.1643 0,-30.626 -22.9184,-50.0165 -56.3319,-47.6603 -21.1299,1.49 -38.5522,9.8811 -45.0848,21.7137 -5.8408,10.5789 -8.2162,48.8586 -4.2251,68.0839 0.6627,3.1927 1.4974,3.6522 5.1588,2.8412 2.4021,-0.5322 7.6386,-1.6412 11.6369,-2.4644 z"
     id="path58"
     inkscape:connector-curvature="0" />
  <path
     style="fill:#014f92;fill-opacity:1;stroke:#014f92;stroke-width:1.61538756;stroke-opacity:1"
     d="m 3365.5687,2531.9871 c -13.9535,-2.3496 -23.6728,-6.5305 -31.1434,-13.397 -7.1554,-6.577 -7.3783,-7.0791 -9.082,-20.4731 -2.5191,-19.8046 -2.5739,-118.5044 -0.072,-127.0881 2.9773,-10.2082 15.4015,-20.6143 29.9597,-25.0937 31.9643,-9.8352 72.4819,1.0434 82.4977,22.1503 4.245,8.9449 3.0674,42.4545 -1.8158,51.6851 -6.6032,12.481 -17.4971,18.5474 -33.4171,18.6091 -13.249,0.05 -29.7162,2.9448 -36.5247,6.4181 -12.4667,6.3602 -19.0163,21.1442 -16.8935,38.1336 2.224,17.8033 9.785,23.2625 32.2174,23.2625 16.8283,0 23.803,-2.5672 28.4716,-10.4798 4.3469,-7.3677 10.4806,-10.5203 20.4672,-10.5203 10.1107,0 14.0839,3.7023 12.4506,11.6031 -3.5547,17.1977 -23.1606,30.8379 -50.3909,35.0582 -12.8622,1.9933 -15.5924,2.0068 -26.7268,0.1316 z m -4.3478,-110.579 c 3.9341,-1.3205 14.211,-3.0348 22.8377,-3.8098 10.0789,-0.9053 17.1997,-2.4014 19.9236,-4.1861 6.1921,-4.0574 9.2806,-12.7661 8.4753,-23.8997 -1.24,-17.1393 -9.9476,-23.0589 -32.1469,-21.8541 -13.3886,0.7267 -20.6199,3.8131 -26.0719,11.1282 -6.1395,8.2377 -7.9435,45.0225 -2.2074,45.0225 1.1201,0 5.2554,-1.0803 9.1896,-2.401 z"
     id="path60"
     inkscape:connector-curvature="0" />
  <path
     style="fill:#014f92;fill-opacity:1;stroke:#014f92;stroke-width:1.61538756;stroke-opacity:1"
     d="M 3080.0271,2401.1936 V 2273.578 h 13.7311 13.7306 v 127.6156 127.6158 h -13.7306 -13.7311 z"
     id="path62"
     inkscape:connector-curvature="0" />
  <path
     style="fill:#014f92;fill-opacity:1;stroke:#014f92;stroke-width:1.61538756;stroke-opacity:1"
     d="m 2781.9881,2531.9564 c -5.3308,-0.8007 -14.4171,-3.8412 -20.1922,-6.7568 -21.1992,-10.7028 -26.6382,-28.7708 -19.0938,-63.4288 3.7156,-17.0688 7.3005,-19.7133 48.9785,-36.1318 38.9862,-15.3578 48.034,-28.0193 34.3712,-48.1007 -5.7846,-8.5018 -12.4763,-10.8743 -27.2078,-9.6456 -17.116,1.4274 -21.962,3.4206 -26.7482,11.0025 -4.4767,7.0921 -11.8743,10.9908 -20.854,10.9908 -8.4409,0 -12.0611,-2.4608 -12.0611,-8.1982 0,-11.4107 12.3082,-25.9242 28.101,-33.136 34.1757,-15.6064 81.3715,-1.936 88.4585,25.6221 2.4754,9.6261 3.1526,108.2001 0.8536,124.2654 -1.7131,11.9718 -6.4616,18.7903 -17.0621,24.5011 -15.5533,8.3788 -38.1812,11.9243 -57.5436,9.016 z m 34.7927,-27.7818 c 5.5316,-2.7896 8.1357,-5.5077 11.1984,-11.6914 3.4532,-6.9712 4.0765,-10.7882 4.6227,-28.3259 0.8123,-26.0721 0.5221,-26.4148 -17.1042,-20.1848 -24.4736,8.6503 -39.9196,17.8376 -45.8524,27.2738 -4.0574,6.4537 -3.3292,17.9918 1.5702,24.8723 8.2404,11.5724 30.7128,15.5456 45.5653,8.056 z"
     id="path64"
     inkscape:connector-curvature="0" />
  <path
     style="fill:#014f92;fill-opacity:1;stroke:#014f92;stroke-width:1.61538756;stroke-opacity:1"
     d="m 2406.4529,2471.8669 c 0.045,-31.3184 0.7318,-68.151 1.5751,-81.8504 1.4813,-24.0694 1.6835,-25.0656 6.0154,-29.5895 10.4917,-10.9569 38.4689,-19.9193 57.7903,-18.5128 18.8421,1.3715 39.7482,11.1096 46.8326,21.8149 6.1912,9.3554 7.2165,23.049 7.2511,96.8301 l 0.045,68.2502 h -13.7805 -13.7806 l 1.0545,-58.5579 c 1.7209,-95.5708 -0.5746,-101.953 -36.7228,-102.1068 -13.3572,-0.058 -16.0835,0.3931 -19.1458,3.1605 -9.7518,8.8124 -11.3172,22.3821 -11.3172,98.0962 v 59.408 h -12.9231 -12.9232 z"
     id="path66"
     inkscape:connector-curvature="0" />
  <path
     style="fill:#014f92;fill-opacity:1;stroke:#014f92;stroke-width:1.61538756;stroke-opacity:1"
     d="m 2116.8742,2532.0588 c -14.1668,-2.5181 -23.7226,-6.648 -31.1642,-13.4687 -6.5977,-6.0468 -7.5416,-7.8255 -9.1537,-17.2424 -2.6594,-15.538 -2.7047,-123.2276 -0.054,-131.9498 8.6105,-28.3499 69.6249,-36.9273 100.8749,-14.1811 4.191,3.0504 8.8154,7.8582 10.277,10.684 3.7964,7.3422 5.9858,47.1498 5.1394,93.4469 -0.7543,41.2617 -1.6714,46.0603 -10.6023,55.4795 -12.0084,12.6653 -43.808,21.0548 -65.3157,17.2316 z m 31.0538,-26.0113 c 11.455,-2.4567 12.7683,-5.1137 14.817,-29.9831 1.9508,-23.6761 0.7818,-85.7068 -1.7782,-94.3753 -0.9382,-3.1755 -3.5566,-7.5128 -5.8189,-9.6382 -3.6364,-3.4164 -5.9521,-3.9382 -19.977,-4.5014 -26.682,-1.0718 -31.4099,3.4026 -34.3797,32.5357 -2.224,21.8151 -0.7751,83.8002 2.1551,92.2236 1.2073,3.4689 4.0131,7.6558 6.2353,9.3042 7.353,5.4533 24.7251,7.4416 38.7464,4.4345 z"
     id="path68"
     inkscape:connector-curvature="0" />
  <path
     style="fill:#014f92;fill-opacity:1;stroke:#014f92;stroke-width:1.61538756;stroke-opacity:1"
     d="m 1831.3326,2437.54 v -91.2694 h 13.7311 13.7306 v 91.2694 91.2694 h -13.7306 -13.7311 z"
     id="path70"
     inkscape:connector-curvature="0" />
  <path
     style="fill:#014f92;fill-opacity:1;stroke:#014f92;stroke-width:1.61538756;stroke-opacity:1"
     d="m 1833.8711,2301.732 c -2.8094,-2.8097 -3.5867,-20.7667 -1.0701,-24.7399 1.8397,-2.9053 15.8317,-4.1912 21.5512,-1.9803 4.2978,1.6613 4.4421,2.1105 4.4421,13.8156 0,10.3082 -0.4622,12.3461 -3.1243,13.7708 -4.9004,2.6226 -18.865,2.0677 -21.7989,-0.8662 z"
     id="path72"
     inkscape:connector-curvature="0" />
  <path
     style="fill:#014f92;fill-opacity:1;stroke:#014f92;stroke-width:1.61538756;stroke-opacity:1"
     d="m 1598.507,2526.2815 c -8.7875,-2.7059 -21.7432,-11.1264 -25.9349,-16.8569 -4.271,-5.8385 -6.0822,-34.1362 -6.1262,-95.7116 l -0.045,-51.2885 h -9.3692 c -10.8795,0 -13.2554,-1.7274 -13.2213,-9.6117 0.045,-8.2329 1.9899,-10.2928 10.7237,-11.3017 10.1712,-1.1749 11.812,-4.4635 11.843,-23.7347 0.045,-18.5831 1.5541,-20.7896 15.7741,-22.8385 l 10.0959,-1.4548 v 23.9707 23.9706 h 12.2218 c 16.0585,0 18.4706,1.3713 18.4706,10.5 0,8.7697 -2.351,10.3598 -17.54,11.862 l -10.7291,1.061 -1.2826,37.154 c -2.1086,61.0803 0.1533,89.3409 7.8221,97.817 1.4988,1.6563 6.2809,4.1925 10.6274,5.6359 8.7934,2.9209 11.1022,5.8961 11.1022,14.3074 0,9.1456 -8.5257,11.4199 -24.4407,6.5198 z"
     id="path74"
     inkscape:connector-curvature="0" />
  <path
     style="fill:#014f92;fill-opacity:1;stroke:#014f92;stroke-width:1.61538756;stroke-opacity:1"
     d="m 892.79252,2448.0983 v -80.7111 l 6.86556,-6.6399 c 26.54607,-25.6745 75.63365,-24.8076 103.80252,1.833 l 8.8708,8.3896 v 78.9198 78.9197 h -13.95856 -13.95799 l 1.13635,-56.9425 c 1.50426,-75.3951 -0.61822,-93.7849 -11.65768,-101.0183 -5.82172,-3.8149 -31.50484,-4.7703 -39.41261,-1.4664 -14.3304,5.9878 -15.76631,14.6353 -15.80851,95.2155 l -0.0451,64.2117 h -12.9228 -12.92317 z"
     id="path76"
     inkscape:connector-curvature="0" />
  <path
     style="fill:#014f92;fill-opacity:1;stroke:#014f92;stroke-width:1.61538756;stroke-opacity:1"
     d="m 1253.5842,2531.9588 c -12.1388,-2.1326 -24.9282,-7.3172 -30.2441,-12.2603 -8.2953,-7.7137 -11.2448,-17.0718 -11.3844,-36.12 -0.2383,-32.5469 8.6275,-42.5449 51.5684,-58.1539 31.716,-11.5289 37.9646,-16.8877 37.9588,-32.5519 0,-15.2978 -8.9516,-23.7809 -26.5707,-25.1951 -16.2026,-1.3007 -20.7345,0.2214 -32.553,10.9316 -10.8206,9.8061 -17.6416,12.6313 -25.646,10.6223 -7.6618,-1.923 -7.3913,-15.2842 0.5306,-26.2126 8.9694,-12.3735 29.7264,-19.9792 54.5266,-19.9792 24.3022,0 46.3378,9.4649 53.2772,22.8842 3.7564,7.2641 5.971,48.0636 5.1145,94.2315 -0.7493,40.3786 -1.7022,45.2988 -10.5891,54.6718 -12.1735,12.8397 -43.7532,21.038 -65.9888,17.1316 z m 33.3505,-26.2987 c 9.1119,-2.3724 10.2288,-4.678 13.5764,-28.0294 3.2366,-22.5752 3.4249,-37.6678 0.4699,-37.6678 -3.7124,0 -29.0611,9.0593 -37.9188,13.5519 -16.2442,8.2389 -26.2009,20.1106 -26.1861,31.2233 0,5.5124 4.9557,13.9371 10.2074,17.3781 7.9204,5.1896 27.0092,6.8871 39.8512,3.5439 z"
     id="path78"
     inkscape:connector-curvature="0" />
  <path
     style="fill:#d5181f;fill-opacity:1;stroke:#d5181f;stroke-width:1.61538756;stroke-opacity:1"
     d="m 3739.958,2164.3342 c -11.0111,-12.5438 -16.3827,-20.4555 -27.145,-39.9809 -29.4161,-53.3686 -44.033,-108.6797 -60.4055,-228.5773 l -5.2944,-38.7693 202.6763,-0.4103 c 111.4719,-0.2254 202.986,-0.101 203.3651,0.279 0.3774,0.3793 4.2273,25.5298 8.5512,55.8904 8.8124,61.8692 11.8469,78.3714 21.2005,115.2801 13.7419,54.2222 30.2482,95.8908 52.3884,132.2496 l 8.6075,14.1347 h -197.5406 -197.541 z"
     id="path80"
     inkscape:connector-curvature="0" />
  <path
     style="fill:#231f20;fill-opacity:1;stroke:#231f20;stroke-width:0.80769378;stroke-opacity:1"
     d="m 1415.575,3385.8611 c -3.9102,-1.7769 -5.2904,-3.9771 -6.1058,-9.7346 -1.6804,-11.8678 2.9137,-49.1852 8.0629,-65.4911 0.8415,-2.6655 2.676,-8.0501 4.0764,-11.9659 4.9138,-13.7414 5.2637,-13.9984 -32.3406,23.7662 -18.8484,18.9287 -37.3594,36.8492 -41.1351,39.8233 -8.4906,6.6876 -20.4695,12.8081 -28.6137,14.62 -7.7134,1.716 -18.1494,1.3791 -22.4508,-0.7246 -3.437,-1.6808 -7.0416,-6.6773 -9.6232,-13.3378 -2.689,-6.9368 -3.0179,-21.9819 -0.7266,-33.2004 6.6459,-32.5393 27.9626,-74.7834 72.9371,-144.5403 44.4891,-69.0049 66.7203,-107.438 70.7512,-122.316 2.0456,-7.5497 -4.9377,-9.9009 -17.1902,-5.7878 -15.9347,5.3492 -29.6604,18.3647 -39.5412,37.4952 -5.5364,10.7195 -10.9687,15.4886 -15.6642,13.7515 -4.1266,-1.5264 -4.3963,-7.5262 -0.7432,-16.5319 4.063,-10.0165 10.9702,-19.74 21.506,-30.2754 16.9566,-16.9553 35.2618,-27.0004 51.01,-27.9917 14.2213,-0.8951 20.0616,4.2345 20.1002,17.6536 0.058,20.3599 -17.0395,53.2451 -72.8035,140.0233 -43.9663,68.4195 -57.1356,95.1779 -64.4257,130.9049 -3.8401,18.8203 -3.3306,22.9717 3.6027,29.3629 4.8536,4.474 6.986,4.8576 12.1042,2.1779 16.7858,-8.7884 72.9366,-65.2642 97.1539,-97.7158 16.7602,-22.4591 41.3169,-57.682 69.342,-99.4607 39.4643,-58.832 53.9406,-79.6741 66.9987,-96.4621 9.2616,-11.9069 18.1898,-21.3783 21.4098,-22.7121 2.2693,-0.94 2.6643,-0.8907 3.6482,0.4546 0.6065,0.8298 1.103,2.2621 1.103,3.183 0,3.3706 -20.6738,39.2274 -59.3973,103.0172 -69.788,114.9633 -75.2674,124.637 -82.3532,145.385 -7.6221,22.319 -11.5071,39.6633 -14.9535,66.7632 -2.3993,18.8618 -4.2107,26.191 -7.1258,28.8291 -2.0667,1.8702 -5.7921,2.3188 -8.6127,1.0373 z"
     id="path82"
     inkscape:connector-curvature="0" />
  <path
     style="fill:#231f20;fill-opacity:1;stroke:#231f20;stroke-width:0.80769378;stroke-opacity:1"
     d="m 1468.2749,3372.6447 c -0.776,-0.8577 -1.4076,-2.0761 -1.4036,-2.7075 0,-3.2269 8.0794,-13.9971 29.3459,-39.222 9.1287,-10.8274 16.6852,-21.4154 16.6852,-23.3783 0,-2.6289 -2.9167,-0.5957 -13.1313,9.1543 -11.8077,11.2707 -15.7434,14.303 -20.845,16.0606 -2.9847,1.0284 -3.5921,1.0172 -5.294,-0.097 -2.7146,-1.7787 -2.5655,-5.7494 0.3684,-9.7839 6.1301,-8.4329 33.6744,-31.5946 47.3961,-39.8546 9.6519,-5.8103 17.5204,-7.0946 23.7852,-3.8821 4.3117,2.211 6.4908,5.9849 6.4908,11.2425 0,5.4944 1.125,7.9403 3.6522,7.9403 1.1421,0 10.5276,-4.34 20.8563,-9.6445 21.5473,-11.0662 30.2185,-14.7524 39.2882,-16.7014 7.35,-1.5793 12.1877,-0.7883 13.8188,2.2593 2.8658,5.3545 -1.9779,17.584 -13.1174,33.1201 -16.07,22.4123 -22.3758,33.4078 -20.8227,36.3099 4.3429,8.1148 23.1176,4.223 40.0826,-8.3089 6.8933,-5.092 14.6419,-13.1971 19.1909,-20.0738 18.4342,-27.8657 67.3051,-55.4778 101.0618,-57.1 16.9124,-0.8126 20.5277,0.5456 20.5277,7.7103 0,3.0632 -0.5237,4.6403 -2.4021,7.2337 -5.3902,7.4408 -22.8521,16.975 -60.194,32.8653 -29.8343,12.6958 -41.3181,19.5999 -42.8614,25.769 -1.2653,5.0562 4.9067,11.1724 14.1726,14.0446 7.1877,2.2281 30.0214,1.9381 41.612,-0.5283 18.6953,-3.9784 34.2477,-10.1545 53.4678,-21.2331 14.2804,-8.2315 23.817,-11.4142 24.996,-8.3424 0.8809,2.2964 -1.6781,6.4371 -8.1421,13.1737 -19.7717,20.6068 -53.7354,32.8286 -99.0549,35.6447 -22.4013,1.392 -27.2827,0.1064 -42.642,-11.2328 l -8.8775,-6.5541 -9.1429,6.5495 c -15.6883,11.2384 -25.4621,14.9059 -38.2199,14.3416 -11.8611,-0.5244 -20.4249,-5.533 -25.2777,-14.783 -1.8128,-3.456 -2.1149,-5.029 -2.092,-10.9041 0.045,-10.2946 2.1939,-15.0074 13.7308,-30.0357 4.4834,-5.8403 7.131,-11.1219 6.0949,-12.158 -3.6603,-3.6604 -41.4811,20.0539 -76.8602,48.1927 -22.3254,17.7568 -33.7889,24.9602 -41.3769,26.0002 -2.7775,0.3805 -3.7308,0.1677 -4.8657,-1.086 z"
     id="path84"
     inkscape:connector-curvature="0" />
  <path
     style="fill:#231f20;fill-opacity:1;stroke:#231f20;stroke-width:1.14225149;stroke-opacity:1"
     d="m 1822.1887,3601.35 c -3.9187,-2.8918 -2.1004,-13.4422 6.0528,-35.118 16.8523,-44.8013 44.0808,-99.8421 90.2481,-182.4275 14.9176,-26.6859 20.6675,-39.1764 20.6343,-44.8261 0,-2.1987 -1.0176,-6.8249 -2.233,-10.2802 -2.7811,-7.9059 -2.8848,-20.2219 -0.238,-27.9852 2.6988,-7.908 8.4204,-10.8514 21.0947,-10.8514 5.5879,0 10.1571,-0.6227 12.1564,-1.6566 7.5687,-3.9137 17.1528,-16.4917 56.6193,-74.3031 54.6422,-80.0407 74.8205,-107.9253 84.9321,-117.3662 5.8475,-5.4598 8.7633,-6.4237 12.8375,-4.2434 9.3882,5.0245 -5.6816,29.1409 -109.4244,175.1167 l -27.4734,38.6579 3.7844,14.6033 c 4.7569,18.356 8.5606,26.304 12.5881,26.304 8.2457,0 24.0398,-12.4418 40.2811,-31.7317 6.3025,-7.4858 13.9403,-15.7961 16.9721,-18.4673 8.7792,-7.7345 23.0443,-16.7287 37.0743,-23.3755 17.5926,-8.3346 27.9141,-11.3431 39.2586,-11.4429 11.5496,-0.101 16.9852,2.3999 21.1315,9.7244 2.6176,4.6241 2.8446,6.1399 2.7205,18.1804 -0.1118,10.7738 -0.6658,14.764 -3.0839,22.1902 -1.6218,4.9797 -2.6871,9.4773 -2.3672,9.9946 3.348,5.4179 27.4747,-12.3062 63.8305,-46.8923 23.7285,-22.5732 32.5061,-27.8887 38.3024,-23.195 l 2.7968,2.2645 -2.0738,7.7827 c -1.1701,4.3917 -2.5301,15.4021 -3.1213,25.2715 -0.6285,10.4916 -1.7194,19.0977 -2.7271,21.5091 -0.9238,2.2108 -4.537,6.6311 -8.0292,9.8228 -6.7838,6.2001 -21.4005,26.9831 -22.7451,32.3409 -1.5504,6.1776 3.411,6.2917 21.5954,0.4973 23.4824,-7.4829 38.2728,-17.8035 76.2019,-53.1733 21.1644,-19.7363 38.7694,-30.9123 57.4416,-36.4653 8.1415,-2.4213 13.4907,-3.1768 25.7127,-3.6316 14.8965,-0.5546 27.6837,0.8114 29.1033,3.1086 2.6019,4.2098 -24.6787,38.2725 -32.2345,40.2483 -3.109,0.813 -7.1611,-1.9767 -7.1611,-4.9297 0,-3.5225 4.1275,-10.7603 7.335,-12.8618 4.1223,-2.7011 6.92,-8.4072 5.1614,-10.5261 -3.0281,-3.6489 -17.1437,-1.075 -30.2014,5.5069 -27.1238,13.6723 -56.5416,44.8653 -56.5416,59.9537 0,5.5195 4.7246,9.9352 12.3886,11.5789 23.3516,5.008 74.0553,-5.5126 97.2181,-20.172 3.4285,-2.1695 14.229,-11.7217 24.0017,-21.2271 25.1785,-24.4889 45.4408,-37.7816 71.1939,-46.7049 9.7004,-3.3613 11.6626,-3.6448 25.4094,-3.6725 12.3715,-0.027 15.4211,0.313 17.9901,1.9949 11.31,7.4047 -8.0152,22.2074 -56.3035,43.1281 -33.0647,14.3252 -47.9747,22.9291 -47.9747,27.6839 0,2.8614 4.1182,7.083 10.0681,10.3213 23.0559,12.5488 80.1234,-0.1082 109.3389,-24.2512 5.7999,-4.7924 8.2333,-5.4983 12.0009,-3.4819 6.5043,3.481 4.7662,9.4272 -4.9461,16.9204 -28.0148,21.613 -64.4783,32.9656 -107.8541,33.5791 -20.6546,0.292 -21.8452,-0.1406 -34.8178,-12.6342 l -9.4409,-9.0927 -12.3774,6.2075 c -22.1957,11.1316 -42.245,16.5441 -69.9142,18.8738 -13.7321,1.1562 -17.8088,1.0832 -28.8522,-0.5172 -16.8204,-2.4375 -22.1395,-4.826 -30.0502,-13.493 l -6.3586,-6.967 -11.4962,7.5325 c -22.0317,14.4352 -37.3861,19.5541 -56.2053,18.7379 -13.7616,-0.597 -17.6682,-2.4338 -20.952,-9.8519 -2.0936,-4.7301 -2.2285,-6.1491 -1.1695,-12.3396 1.6475,-9.6297 6.5384,-19.3247 17.5212,-34.7307 8.8281,-12.3839 14.7348,-22.7696 14.7595,-25.9527 0,-2.2361 -4.4159,-1.6763 -8.3792,1.0577 -1.9818,1.3672 -9.0005,7.6894 -15.597,14.0496 -24.8228,23.9336 -35.7967,30.5413 -54.2088,32.6412 -10.2258,1.1665 -21.2207,6.0163 -39.8292,17.5696 -19.5651,12.1471 -40.5957,17.958 -56.456,15.5991 -12.7044,-1.8896 -24.2703,-8.7357 -24.2703,-14.3664 0,-2.9146 -2.038,-5.1548 -4.6893,-5.1548 -1.0714,0 -4.0881,1.7877 -6.7032,3.9726 -3.0143,2.5185 -7.7579,4.8594 -12.9584,6.395 -14.0936,4.1613 -15.5282,5.9942 -27.2011,34.7513 -10.8421,26.7107 -38.6066,80.9635 -54.936,107.3471 -32.9806,53.2873 -90.729,107.2532 -104.1631,97.3407 z m 36.0485,-42.7702 c 25.5935,-23.1223 48.9996,-55.0953 79.2315,-108.2318 18.7851,-33.0177 37.1163,-72.5187 37.1163,-79.9809 0,-4.6727 -3.9627,-9.2212 -11.0577,-12.6925 l -6.4334,-3.1475 -3.0551,3.6597 c -12.9929,15.5634 -102.5669,187.2148 -104.7658,200.7628 -0.5557,3.4259 -0.3324,3.9101 1.7962,3.9101 1.3367,0 4.5626,-1.9259 7.168,-4.2799 z m 222.6556,-208.869 c 8.7457,-2.5835 24.5035,-10.6211 28.5193,-14.547 1.8619,-1.8204 3.3854,-4.2592 3.3854,-5.4196 0,-1.1603 -1.7666,-5.3398 -3.9254,-9.2879 -2.1593,-3.9481 -5.4742,-12.7636 -7.3665,-19.5898 -1.8924,-6.8263 -3.7061,-12.6767 -4.0306,-13.0011 -0.7179,-0.718 -22.1031,18.9651 -31.3825,28.8851 -8.4018,8.9814 -13.2419,18.3685 -12.2359,23.7311 0.6914,3.6857 5.1736,8.9812 8.682,10.2579 3.4464,1.2541 12.3067,0.7576 18.3542,-1.0287 z m -103.2122,-6.1633 c 1.764,-3.4989 1.9415,-16.7099 0.2381,-17.7622 -2.5604,-1.5824 -11.33,9.1916 -11.33,13.9196 0,2.9234 4.6991,7.4161 7.3543,7.0313 1.2638,-0.1833 2.9456,-1.6181 3.7373,-3.1887 z m -16.1284,-27.9818 c 0.9988,-1.5247 2.0933,-4.8381 2.432,-7.3637 0.4874,-3.6345 0.2111,-4.7469 -1.3223,-5.3355 -6.5038,-2.4958 -14.1795,10.9886 -9.1289,16.0388 2.1654,2.1656 5.2547,0.879 8.0192,-3.3396 z m 174.6144,-4.1537 c 5.8102,-6.9051 7.9339,-12.4307 7.99,-20.79 0.049,-7.168 -0.2111,-8.0322 -3.152,-10.5657 -4.2728,-3.6789 -10.2375,-3.6991 -13.8893,-0.047 -3.2313,3.231 -4.478,10.0475 -3.8549,21.076 0.7521,13.3115 6.5152,17.9223 12.9062,10.3267 z"
     id="path86"
     inkscape:connector-curvature="0" />
  <path
     style="fill:#231f20;fill-opacity:1;stroke:#231f20;stroke-width:1.14225149;stroke-opacity:1"
     d="m 3516.6254,3371.5336 c -2.8922,-3.4846 2.7917,-12.1592 25.0737,-38.2663 14.8402,-17.3885 18.8672,-22.6896 17.9398,-23.6169 -1.0014,-1.0015 -7.795,3.9084 -20.2774,14.6544 -22.556,19.4185 -44.7247,34.7967 -60.2335,41.7838 -8.1929,3.691 -17.5203,3.8389 -26.5443,0.4206 -8.1176,-3.0747 -12.4807,-7.5669 -13.3029,-13.6965 -0.846,-6.3072 -2.8408,-6.1692 -15.7497,1.0895 -13.4098,7.5404 -21.7809,10.3094 -31.2567,10.3393 -8.8084,0.027 -13.1596,-1.3587 -17.6764,-5.632 -4.681,-4.4291 -6.2118,-7.9764 -7.0231,-16.277 -1.0753,-11.0016 -1.5353,-12.4922 -3.8567,-12.4922 -1.1476,0 -8.2005,3.9597 -15.6738,8.7993 -26.8157,17.3656 -56.079,27.2041 -74.1857,24.9419 -9.5943,-1.1988 -11.8647,-3.7476 -13.4938,-15.1478 l -1.3334,-9.3343 -16.5548,10.9286 c -20.24,13.3614 -29.1079,17.6166 -38.2604,18.3597 -10.6991,0.8685 -21.8447,-4.7734 -26.7814,-13.5568 -2.2644,-4.029 -2.5506,-5.8058 -2.0689,-12.8346 0.699,-10.1972 3.7915,-17.2815 14.3556,-32.8861 8.7089,-12.8645 11.2918,-17.6947 10.0993,-18.8872 -4.5286,-4.5286 -66.381,48.8442 -74.4563,64.2491 -2.7236,5.1952 -7.5094,7.1555 -13.3825,5.4812 -7.1706,-2.044 -5.3999,-8.5659 9.2547,-34.0924 13.2554,-23.0891 17.282,-32.5727 13.8305,-32.5727 -6.254,0 -33.3402,20.1691 -62.2071,46.3211 -25.7661,23.3422 -40.4201,32.4911 -45.7732,28.5769 -4.8758,-3.565 2.9813,-17.4936 22.9193,-40.6305 12.1033,-14.0449 19.3355,-23.8881 18.3076,-24.9164 -1.0497,-1.0495 -6.5058,3.5039 -23.9084,19.9533 -20.2237,19.1159 -31.7703,28.1689 -44.0785,34.5597 -10.8232,5.6198 -19.237,8.1046 -27.336,8.0727 -8.7119,-0.036 -14.5666,-2.9916 -21.1279,-10.6718 -3.0246,-3.5403 -6.3365,-6.4284 -7.3599,-6.4179 -1.0229,0 -7.2573,3.107 -13.8536,6.8812 -13.9446,7.9787 -23.8445,11.3758 -33.1507,11.3758 -5.3899,0 -8.0556,-0.752 -14.1744,-3.9979 -4.1447,-2.1987 -8.6169,-3.9979 -9.9386,-3.9979 -1.3214,0 -7.0969,2.1245 -12.8339,4.7211 -16.969,7.6802 -21.9835,7.152 -34.1808,-3.6007 -9.1538,-8.07 -10.5276,-11.8175 -10.4611,-28.5344 0.054,-13.0702 0.4673,-15.8237 4.9085,-32.546 4.8859,-18.3943 5.2256,-23.4268 1.581,-23.4214 -6.5034,0 -42.6413,27.7798 -67.4671,51.8449 -4.6074,4.4662 -12.7137,13.6173 -18.0144,20.3357 -10.6828,13.5403 -14.3256,16.9122 -18.2699,16.9122 -2.7697,0 -5.0305,-2.9234 -5.0206,-6.493 0,-4.9183 14.591,-29.9086 38.6497,-66.2568 20.4479,-30.8925 38.0132,-56.0536 75.6039,-108.2972 16.7256,-23.2448 40.8752,-57.1695 53.6659,-75.3885 40.0524,-57.05 50.4333,-71.4816 63.3763,-88.1065 24.2416,-31.1375 37.6649,-44.9658 43.6494,-44.9658 4.0948,0 8.3275,4.8496 8.3275,9.5411 0,10.3174 -18.9135,37.2413 -94.802,134.9537 -59.37,76.4436 -111.9458,147.0519 -111.9458,150.3409 0,0.563 6.5537,-2.2553 14.5641,-6.2629 8.0099,-4.0078 18.3209,-8.6376 22.913,-10.2885 17.6602,-6.349 21.9203,-3.2509 21.9203,15.9412 0,10.9172 -1.79,20.431 -7.6113,40.4541 -2.2834,7.853 -4.2035,16.4558 -4.267,19.1172 -0.1028,4.3189 0.4696,5.4238 5.326,10.2804 4.9128,4.9129 5.9295,5.4307 10.4737,5.3338 10.1942,-0.2175 25.416,-14.0876 48.0048,-43.7428 14.6916,-19.2874 26.2683,-31.6237 30.727,-32.7428 3.9973,-1.0032 8.7269,1.0626 8.7269,3.8118 0,2.9077 -5.6641,11.5713 -15.4814,23.6797 -9.3757,11.5639 -16.5019,22.7747 -16.5019,25.9603 0,3.0696 -3.1593,8.7887 -7.5803,13.7208 -4.4363,4.9494 -4.709,6.5684 -1.5832,9.3971 1.6878,1.5277 3.415,1.8893 6.834,1.4307 12.6501,-1.6967 27.5279,-13.0967 60.0134,-45.9853 14.4494,-14.6287 28.0709,-27.6722 30.2697,-28.9854 5.0696,-3.0282 9.6291,-3.0473 12.623,-0.054 3.7166,3.7164 1.5784,7.8618 -13.9816,27.109 -20.2691,25.0717 -26.5138,39.0517 -20.3828,45.632 7.5094,8.0607 19.4007,1.8963 51.4401,-26.6657 31.2186,-27.8308 56.0811,-44.9916 65.1841,-44.9916 3.5409,0 6.4361,2.3303 13.2589,10.6711 1.3663,1.6698 3.4747,3.0361 4.6856,3.0361 1.2112,0 8.0607,-2.8879 15.2213,-6.4172 16.4254,-8.0963 23.9505,-10.7167 30.7766,-10.7167 8.2295,0 10.5572,2.4709 11.154,11.8411 0.3908,6.1555 0.8436,7.5772 2.4085,7.5772 1.0599,0 6.5254,-2.9048 12.1464,-6.4551 13.6952,-8.6502 24.77,-13.6779 33.7913,-15.3401 12.1922,-2.2466 20.4051,0.7603 20.4051,7.4704 0,4.5954 -9.2063,21.1031 -20.8369,37.3626 -22.1628,30.9833 -23.4095,38.6153 -6.0807,37.2243 8.7085,-0.699 14.531,-3.5915 36.0557,-17.9138 9.1092,-6.0612 18.3615,-11.6866 20.5602,-12.5008 8.6955,-3.2197 11.286,-4.7424 22.8865,-13.4536 14.7061,-11.0423 27.2065,-18.4623 42.2859,-25.0986 23.8252,-10.4855 49.0531,-15.0819 49.0531,-8.9376 0,2.386 -7.5488,6.7478 -20.824,12.0321 -36.4016,14.4904 -69.2807,37.4829 -75.754,52.9751 -4.4956,10.7592 5.1965,11.095 28.9227,1.0022 28.849,-12.2721 59.3937,-32.3579 84.3261,-55.4523 18.8614,-17.4708 26.9049,-21.743 28.5556,-15.1665 1.0805,4.3047 -1.3174,8.8407 -9.4906,17.9559 -12.2521,13.6638 -26.9221,41.1239 -28.5824,53.5015 -1.2804,9.5478 9.1915,13.0464 22.5727,7.541 3.4702,-1.4278 8.6514,-4.207 11.5129,-6.1758 9.9745,-6.8628 28.1109,-26.9062 52.2712,-57.7678 12.4839,-15.9468 23.0817,-25.9283 27.5286,-25.9283 3.9995,0 6.893,2.6364 6.893,6.281 0,3.9496 -6.4712,15.7054 -17.417,31.6414 -5.3079,7.7276 -13.0018,18.9331 -17.0976,24.9013 -12.9705,18.9002 -14.648,24.0454 -9.5136,29.1795 7.9785,7.9784 24.7085,-0.3919 65.1599,-32.6003 27.7461,-22.0917 36.141,-28.2184 45.0152,-32.8511 6.6243,-3.4583 8.3226,-3.8734 14.1409,-3.4569 10.4279,0.7467 12.58,4.0041 10.5891,16.0271 -0.8625,5.21 -0.7897,5.4257 1.8318,5.4257 1.5016,0 10.6837,-3.9034 20.4042,-8.6744 28.6443,-14.0581 45.2382,-19.7664 52.6981,-18.1279 11.2161,2.4633 7.0385,15.0133 -13.673,41.0775 -16.5162,20.7844 -20.5467,29.6248 -14.888,32.6533 1.5257,0.8166 5.7674,1.12 11.1368,0.7968 16.0242,-0.9643 24.8393,-7.4968 54.3632,-40.2855 24.0669,-26.7286 67.9975,-48.6681 97.091,-48.4883 11.9924,0.074 17.0168,1.7645 17.4916,5.8854 0.6938,6.0145 -2.688,10.4277 -12.4304,16.2227 -11.0546,6.576 -44.1261,22.5383 -68.8363,33.225 -9.9473,4.3018 -19.5849,9.222 -21.4174,10.9338 -6.717,6.2746 -3.3047,14.5858 8.0762,19.6706 16.4017,7.3279 60.0367,0.052 88.539,-14.7613 5.6543,-2.9387 13.7576,-7.1492 18.0078,-9.3568 9.2001,-4.7784 17.6722,-5.7555 17.0096,-1.9614 -1.3214,7.5617 -25.2009,25.7698 -44.1333,33.6515 -21.7594,9.0583 -45.7626,13.155 -72.5552,12.383 -19.1557,-0.5519 -24.983,-2.2426 -34.1332,-9.9033 -3.2879,-2.7528 -6.773,-4.6816 -8.4591,-4.6816 -1.5775,0 -5.6183,1.8675 -8.9794,4.1501 -14.4616,9.82 -26.5514,13.5818 -40.9686,12.7472 -13.1132,-0.7591 -19.1626,-4.9411 -23.5969,-16.3139 -3.1782,-8.1519 -0.717,-19.2134 6.4842,-29.1396 10.2679,-14.154 12.5619,-17.7755 12.5619,-19.8314 0,-8.1031 -31.6329,11.6259 -86.8115,54.1432 -20.3957,15.7159 -32.6292,21.2448 -36.551,16.5194 z"
     id="path88"
     inkscape:connector-curvature="0" />
  <path
     style="fill:#231f20;fill-opacity:1;stroke:#231f20;stroke-width:1.14225149;stroke-opacity:1"
     d="m 3517.7799,3241.0163 c -2.1915,-1.0965 -4.6626,-3.4093 -5.492,-5.1393 -1.3567,-2.8313 -1.1979,-3.7148 1.5955,-8.8465 1.7062,-3.1355 6.067,-8.5287 9.6905,-11.9848 10.7044,-10.2101 14.4328,-8.3823 13.9773,6.852 -0.487,16.2911 -8.9893,24.5129 -19.7713,19.1186 z"
     id="path90"
     inkscape:connector-curvature="0" />
</svg>
